<?xml version="1.0" encoding="utf-8"?>
<!-- Generator: Adobe Illustrator 26.5.0, SVG Export Plug-In . SVG Version: 6.00 Build 0)  -->
<svg version="1.1" id="Layer_1" xmlns="http://www.w3.org/2000/svg" xmlns:xlink="http://www.w3.org/1999/xlink" x="0px" y="0px"
	 viewBox="0 0 400 100" style="enable-background:new 0 0 400 100;" xml:space="preserve">
<style type="text/css">
	.st0{fill:#FBB040;stroke:#000000;stroke-width:5;stroke-miterlimit:10;}
	.st1{fill:#231F20;}
	.st2{font-family:'Helvetica-Bold';}
	.st3{font-size:28.9284px;}
</style>
<path class="st0" d="M91.7,50.7c0,6.5-0.9,12.6-2.8,18.5c-1.9,5.8-5,11.1-9.5,15.9c-3.6,3.7-7.8,6.5-12.8,8.4s-10.2,2.9-15.8,2.9
	c-5.5,0-10.8-1-15.9-3s-9.3-4.7-12.6-8.2c-4.3-4.6-7.5-9.9-9.6-15.7s-3.2-12-3.2-18.6c0-7.3,0.9-13.6,2.8-18.8s4.8-10.1,8.8-14.8
	c3.5-4.1,7.8-7.1,12.8-9.1C39,6.3,44.6,5.3,50.5,5.3c5.7,0,11,0.9,15.9,2.7s9.4,4.9,13.4,9.2c3.8,4,6.7,8.8,8.7,14.4
	S91.7,43.6,91.7,50.7z M54.9,51.2c0-2.9-0.1-5.7-0.3-8.4c-0.2-2.6-0.6-5-1-6.9c-0.3-0.7-0.6-1.4-1.1-2c-0.4-0.6-1-0.9-1.7-0.9
	c-0.8,0-1.4,0.3-1.7,0.8c-0.4,0.5-0.7,1.3-1.1,2.2c-0.4,1.2-0.7,3.3-0.9,6.1s-0.3,5.9-0.3,9.2c0,2.9,0.1,5.6,0.3,8s0.5,4.4,1,6
	c0.3,1.1,0.6,2.1,1,3s1,1.3,1.8,1.3s1.5-0.5,1.9-1.4s0.7-1.9,0.9-2.9c0.4-1.4,0.7-3.2,1-5.6C54.8,57.2,54.9,54.4,54.9,51.2z"/>
<path class="st0" d="M168.4,94.5h-38.3c0.1-5,0.1-10,0.1-15.1s0-14.4,0-28c0-7.8,0-15.5,0-22.9s0-14.5,0-21.2h38.3
	c0.1,7.3,0.1,13.6,0,19.1c0,5.5,0,14,0,25.6c0,12.1,0,20.7,0,25.8C168.4,83.1,168.4,88.6,168.4,94.5z"/>
<text transform="matrix(1 0 0 1 182.2863 26.4587)" class="st1 st2 st3">Ibero-American</text>
<text transform="matrix(1 0 0 1 182.2863 61.1587)" class="st1 st2 st3">Olympiad</text>
<text transform="matrix(1 0 0 1 182.2863 95.8587)" class="st1 st2 st3">in Informatics</text>
<path class="st0" d="M130.6,94.5H92.3c0.1-5,0.1-10,0.1-15.1s0-14.4,0-28c0-7.8,0-15.5,0-22.9s0-14.5,0-21.2h38.3
	c0.1,7.3,0.1,13.6,0,19.1c0,5.5,0,14,0,25.6c0,12.1,0,20.7,0,25.8C130.6,83.1,130.6,88.6,130.6,94.5z"/>
</svg>
